<mxfile host="app.diagrams.net" modified="2024-04-12T02:28:25.962Z" agent="Mozilla/5.0 (Macintosh; Intel Mac OS X 10_15_7) AppleWebKit/537.36 (KHTML, like Gecko) Chrome/123.0.0.0 Safari/537.36" etag="gZTDewiIhN91Gc1y9BwD" version="24.2.3" type="github">
  <diagram name="第 1 页" id="ACuoTEv1PadcOvCp7TRQ">
    <mxGraphModel dx="2074" dy="1001" grid="1" gridSize="10" guides="1" tooltips="1" connect="1" arrows="1" fold="1" page="1" pageScale="1" pageWidth="827" pageHeight="1169" math="0" shadow="0">
      <root>
        <mxCell id="0" />
        <mxCell id="1" parent="0" />
        <mxCell id="F7WhC4ye6lDkc82479PE-1" value="" style="rounded=0;whiteSpace=wrap;html=1;" vertex="1" parent="1">
          <mxGeometry x="170" y="70" width="540" height="350" as="geometry" />
        </mxCell>
        <mxCell id="F7WhC4ye6lDkc82479PE-2" value="试管架1" style="rounded=0;whiteSpace=wrap;html=1;" vertex="1" parent="1">
          <mxGeometry x="200" y="120" width="50" height="220" as="geometry" />
        </mxCell>
        <mxCell id="F7WhC4ye6lDkc82479PE-3" value="试管架2" style="rounded=0;whiteSpace=wrap;html=1;" vertex="1" parent="1">
          <mxGeometry x="320" y="120" width="50" height="220" as="geometry" />
        </mxCell>
        <mxCell id="F7WhC4ye6lDkc82479PE-4" value="试管架3" style="rounded=0;whiteSpace=wrap;html=1;" vertex="1" parent="1">
          <mxGeometry x="430" y="120" width="50" height="220" as="geometry" />
        </mxCell>
        <mxCell id="F7WhC4ye6lDkc82479PE-5" value="试管架4" style="rounded=0;whiteSpace=wrap;html=1;" vertex="1" parent="1">
          <mxGeometry x="530" y="120" width="50" height="220" as="geometry" />
        </mxCell>
        <mxCell id="F7WhC4ye6lDkc82479PE-6" value="试管架5" style="rounded=0;whiteSpace=wrap;html=1;" vertex="1" parent="1">
          <mxGeometry x="630" y="120" width="50" height="220" as="geometry" />
        </mxCell>
        <mxCell id="F7WhC4ye6lDkc82479PE-8" value="" style="rounded=0;whiteSpace=wrap;html=1;" vertex="1" parent="1">
          <mxGeometry x="140" y="670" width="550" height="280" as="geometry" />
        </mxCell>
        <mxCell id="F7WhC4ye6lDkc82479PE-9" value="机械臂" style="rounded=0;whiteSpace=wrap;html=1;" vertex="1" parent="1">
          <mxGeometry x="60" y="560" width="140" height="80" as="geometry" />
        </mxCell>
        <mxCell id="F7WhC4ye6lDkc82479PE-10" value="试管" style="rounded=0;whiteSpace=wrap;html=1;fillColor=#ffe6cc;strokeColor=#d79b00;" vertex="1" parent="1">
          <mxGeometry x="160" y="690" width="30" height="80" as="geometry" />
        </mxCell>
        <mxCell id="F7WhC4ye6lDkc82479PE-11" value="试管" style="rounded=0;whiteSpace=wrap;html=1;fillColor=#ffe6cc;strokeColor=#d79b00;" vertex="1" parent="1">
          <mxGeometry x="220" y="700" width="30" height="70" as="geometry" />
        </mxCell>
        <mxCell id="F7WhC4ye6lDkc82479PE-12" value="试管" style="rounded=0;whiteSpace=wrap;html=1;fillColor=#dae8fc;strokeColor=#6c8ebf;" vertex="1" parent="1">
          <mxGeometry x="170" y="810" width="30" height="80" as="geometry" />
        </mxCell>
        <mxCell id="F7WhC4ye6lDkc82479PE-13" value="试管" style="rounded=0;whiteSpace=wrap;html=1;fillColor=#dae8fc;strokeColor=#6c8ebf;" vertex="1" parent="1">
          <mxGeometry x="230" y="810" width="30" height="80" as="geometry" />
        </mxCell>
        <mxCell id="F7WhC4ye6lDkc82479PE-14" value="试管" style="rounded=0;whiteSpace=wrap;html=1;fillColor=#ffe6cc;strokeColor=#d79b00;" vertex="1" parent="1">
          <mxGeometry x="280" y="695" width="30" height="80" as="geometry" />
        </mxCell>
        <mxCell id="F7WhC4ye6lDkc82479PE-15" value="试管" style="rounded=0;whiteSpace=wrap;html=1;fillColor=#dae8fc;strokeColor=#6c8ebf;" vertex="1" parent="1">
          <mxGeometry x="280" y="810" width="30" height="80" as="geometry" />
        </mxCell>
        <mxCell id="F7WhC4ye6lDkc82479PE-16" value="试管" style="rounded=0;whiteSpace=wrap;html=1;fillColor=#dae8fc;strokeColor=#6c8ebf;" vertex="1" parent="1">
          <mxGeometry x="330" y="700" width="30" height="80" as="geometry" />
        </mxCell>
        <mxCell id="F7WhC4ye6lDkc82479PE-17" value="试管" style="rounded=0;whiteSpace=wrap;html=1;fillColor=#dae8fc;strokeColor=#6c8ebf;" vertex="1" parent="1">
          <mxGeometry x="350" y="810" width="30" height="80" as="geometry" />
        </mxCell>
        <mxCell id="F7WhC4ye6lDkc82479PE-18" value="试管" style="rounded=0;whiteSpace=wrap;html=1;fillColor=#dae8fc;strokeColor=#6c8ebf;" vertex="1" parent="1">
          <mxGeometry x="410" y="695" width="30" height="80" as="geometry" />
        </mxCell>
        <mxCell id="F7WhC4ye6lDkc82479PE-19" value="试管" style="rounded=0;whiteSpace=wrap;html=1;fillColor=#e1d5e7;strokeColor=#9673a6;" vertex="1" parent="1">
          <mxGeometry x="410" y="810" width="30" height="80" as="geometry" />
        </mxCell>
        <mxCell id="F7WhC4ye6lDkc82479PE-20" value="试管" style="rounded=0;whiteSpace=wrap;html=1;fillColor=#dae8fc;strokeColor=#6c8ebf;" vertex="1" parent="1">
          <mxGeometry x="500" y="700" width="30" height="80" as="geometry" />
        </mxCell>
        <mxCell id="F7WhC4ye6lDkc82479PE-21" value="试管" style="rounded=0;whiteSpace=wrap;html=1;fillColor=#e1d5e7;strokeColor=#9673a6;" vertex="1" parent="1">
          <mxGeometry x="530" y="820" width="30" height="80" as="geometry" />
        </mxCell>
      </root>
    </mxGraphModel>
  </diagram>
</mxfile>
